<svg width="38" height="38" viewBox="0 0 38 38" fill="none" xmlns="http://www.w3.org/2000/svg">
<path d="M19 4.75C17.1213 6.64195 16.069 9.2014 16.0736 11.8677C16.0783 14.534 17.1395 17.0898 19.0249 18.9751C20.9103 20.8605 23.466 21.9217 26.1323 21.9264C28.7986 21.931 31.3581 20.8788 33.25 19C33.25 21.8184 32.4143 24.5735 30.8484 26.9169C29.2826 29.2603 27.0571 31.0867 24.4532 32.1653C21.8494 33.2438 18.9842 33.526 16.22 32.9762C13.4557 32.4264 10.9166 31.0692 8.92373 29.0763C6.93084 27.0834 5.57366 24.5443 5.02382 21.78C4.47398 19.0158 4.75617 16.1506 5.83472 13.5468C6.91327 10.9429 8.73973 8.71737 11.0831 7.15156C13.4265 5.58575 16.1816 4.75 19 4.75Z" stroke="black" stroke-width="2" stroke-linecap="round" stroke-linejoin="round"/>
</svg>
