<svg width="32" height="32" viewBox="0 0 32 32" fill="none" xmlns="http://www.w3.org/2000/svg">
<path d="M23.5998 10.2666C23.9901 9.89086 24.4661 9.61586 24.9866 9.46547C25.5071 9.31508 26.0564 9.29382 26.587 9.40355C27.1175 9.51327 27.6133 9.75066 28.0315 10.0952C28.4496 10.4397 28.7775 10.8809 28.9867 11.3807C29.1959 11.8804 29.2801 12.4237 29.2321 12.9633C29.1841 13.503 29.0052 14.0228 28.711 14.4777C28.4169 14.9327 28.0162 15.3091 27.5438 15.5743C27.0714 15.8396 26.5414 15.9857 25.9998 16H2.6665" stroke="black" stroke-width="2" stroke-linecap="round" stroke-linejoin="round"/>
<path d="M12.7998 6.13323C13.1087 5.81817 13.491 5.58469 13.9123 5.4537C14.3337 5.32272 14.7809 5.29834 15.214 5.38273C15.6471 5.46713 16.0525 5.65768 16.3938 5.93729C16.7352 6.2169 17.0018 6.57683 17.1698 6.98483C17.3378 7.39283 17.4019 7.83614 17.3564 8.27502C17.3109 8.7139 17.1573 9.13464 16.9092 9.49953C16.6611 9.86441 16.3263 10.162 15.9349 10.3657C15.5435 10.5694 15.1077 10.6728 14.6665 10.6666H2.6665" stroke="black" stroke-width="2" stroke-linecap="round" stroke-linejoin="round"/>
<path d="M16.7998 25.8666C17.1087 26.1817 17.491 26.4152 17.9123 26.5461C18.3337 26.6771 18.7809 26.7015 19.214 26.6171C19.6471 26.5327 20.0525 26.3422 20.3938 26.0626C20.7352 25.7829 21.0018 25.423 21.1698 25.015C21.3378 24.607 21.4019 24.1637 21.3564 23.7248C21.3109 23.2859 21.1573 22.8652 20.9092 22.5003C20.6611 22.1354 20.3263 21.8378 19.9349 21.6341C19.5435 21.4304 19.1077 21.3271 18.6665 21.3333H2.6665" stroke="black" stroke-width="2" stroke-linecap="round" stroke-linejoin="round"/>
</svg>
