<svg width="240" height="240" viewBox="0 0 240 240" fill="none" xmlns="http://www.w3.org/2000/svg">
<path fill-rule="evenodd" clip-rule="evenodd" d="M195 95.7143C195 96.3449 194.99 96.9731 194.969 97.5987C203.917 102.424 210 111.908 210 122.818C210 138.619 197.24 151.429 181.5 151.429H139.575L139.5 151.429H138.365C139.124 150.901 143.87 147.602 145.121 146.776C147.544 148.434 150.803 148.666 153.517 147.103C156.267 145.519 157.697 142.528 157.42 139.566C159.019 138.628 159.069 138.724 159.069 138.724C162.827 136.56 164.116 131.753 161.944 128C159.772 124.249 154.958 122.954 151.194 125.121C151.194 125.121 151.018 125.257 149.49 126.019C147.072 124.392 143.839 124.174 141.143 125.727C138.415 127.298 136.986 130.255 137.234 133.194C135.833 134.03 129.875 137.647 129.875 137.647C129.875 137.647 129.891 129.943 129.958 128.886C132.574 127.609 134.374 124.93 134.374 121.829C134.374 118.692 132.526 115.982 129.857 114.725C129.896 113.348 129.875 112.845 129.875 112.845C129.875 108.517 126.345 105 122 105C117.657 105 114.125 108.51 114.125 112.845C114.125 112.845 114.145 113.011 114.132 114.729C111.468 115.988 109.626 118.693 109.626 121.829C109.626 124.977 111.486 127.694 114.17 128.946C114.097 131.009 114.125 137.647 114.125 137.647C114.125 137.647 108.251 134.188 106.772 133.141C106.999 130.219 105.571 127.29 102.857 125.727C100.152 124.169 96.901 124.396 94.479 126.042C92.95 125.273 92.8061 125.121 92.8061 125.121C89.0481 122.957 84.229 124.247 82.0564 128C79.8847 131.751 81.1673 136.557 84.9314 138.724C84.9314 138.724 85.2887 138.723 86.5738 139.618C86.3178 142.563 87.7466 145.527 90.4827 147.103C93.2088 148.672 96.4882 148.43 98.9159 146.749C99.6612 147.35 105.709 150.881 106.649 151.429L69 151.429C47.4609 151.429 30 133.9 30 112.278C30 90.6557 47.4609 73.1274 69 73.1274C75.4999 73.1274 81.6283 74.7236 87.0176 77.5468C94.5218 55.6968 115.185 40 139.5 40C170.152 40 195 64.9441 195 95.7143Z" fill="white"/>
<path fill-rule="evenodd" clip-rule="evenodd" d="M118.73 175.869V125.918H117.644C115.837 125.918 114.372 124.455 114.372 122.66C114.372 120.861 115.834 119.402 117.644 119.402H118.73V113.964C118.73 112.17 120.198 110.715 122 110.715C123.805 110.715 125.269 112.178 125.269 113.964V119.402H126.355C128.163 119.402 129.628 120.864 129.628 122.66C129.628 124.459 128.165 125.918 126.355 125.918H125.269V175.869H126.355C128.163 175.869 129.628 177.331 129.628 179.127C129.628 180.926 128.165 182.385 126.355 182.385H125.269V187.822C125.269 189.617 123.802 191.072 122 191.072C120.194 191.072 118.73 189.609 118.73 187.822V182.385H117.644C115.837 182.385 114.372 180.923 114.372 179.127C114.372 177.328 115.834 175.869 117.644 175.869H118.73Z" fill="white"/>
<path fill-rule="evenodd" clip-rule="evenodd" d="M101.928 135.584L145.34 160.56L145.883 159.623C146.787 158.063 148.791 157.529 150.351 158.427C151.915 159.327 152.451 161.318 151.546 162.881L151.003 163.818L155.729 166.537C157.288 167.434 157.819 169.428 156.918 170.983C156.015 172.541 154.012 173.072 152.459 172.179L147.734 169.46L147.191 170.398C146.287 171.957 144.283 172.491 142.723 171.593C141.159 170.694 140.623 168.702 141.528 167.14L142.071 166.203L98.659 141.227L98.116 142.164C97.2122 143.724 95.2088 144.257 93.6483 143.36C92.0847 142.46 91.5485 140.468 92.4535 138.906L92.9966 137.969L88.2708 135.25C86.7111 134.353 86.1803 132.359 87.0812 130.804C87.984 129.246 89.9876 128.715 91.54 129.608L96.2658 132.326L96.8088 131.389C97.7126 129.829 99.716 129.296 101.277 130.194C102.84 131.093 103.376 133.085 102.471 134.647L101.928 135.584Z" fill="white"/>
<path fill-rule="evenodd" clip-rule="evenodd" d="M145.34 141.227L101.928 166.203L102.471 167.14C103.375 168.7 102.837 170.695 101.276 171.593C99.7128 172.493 97.7138 171.96 96.8088 170.398L96.2657 169.46L91.54 172.179C89.9802 173.077 87.9821 172.538 87.0812 170.983C86.1784 169.425 86.7183 167.43 88.2708 166.537L92.9965 163.818L92.4535 162.881C91.5497 161.321 92.0878 159.325 93.6483 158.427C95.2119 157.528 97.2109 158.061 98.1159 159.623L98.659 160.56L142.071 135.584L141.528 134.647C140.624 133.087 141.162 131.091 142.723 130.194C144.287 129.294 146.286 129.827 147.191 131.389L147.734 132.327L152.459 129.608C154.019 128.71 156.017 129.249 156.918 130.804C157.821 132.362 157.281 134.357 155.729 135.25L151.003 137.969L151.546 138.906C152.45 140.466 151.912 142.462 150.351 143.36C148.787 144.259 146.788 143.726 145.883 142.164L145.34 141.227Z" fill="white"/>
</svg>
