<svg width="207" height="207" viewBox="0 0 207 207" fill="none" xmlns="http://www.w3.org/2000/svg">
<path d="M103.499 77.6246C95.8033 77.5006 88.287 79.9536 82.1458 84.5936C76.0047 89.2335 71.5915 95.7937 69.6083 103.231C67.6251 110.668 68.1858 118.554 71.2011 125.636C74.2165 132.718 79.5134 138.588 86.2492 142.312" stroke="white" stroke-width="14" stroke-linecap="round" stroke-linejoin="round"/>
<path d="M103.5 25.875V43.125" stroke="white" stroke-width="14" stroke-linecap="round" stroke-linejoin="round"/>
<path d="M56.9246 158.7L44.8496 170.775" stroke="white" stroke-width="14" stroke-linecap="round" stroke-linejoin="round"/>
<path d="M172.5 34.5V125.407C179.077 129.205 184.218 135.066 187.124 142.083C190.03 149.099 190.54 156.879 188.574 164.215C186.609 171.55 182.278 178.033 176.252 182.656C170.227 187.279 162.845 189.785 155.25 189.785C147.655 189.785 140.273 187.279 134.248 182.656C128.223 178.033 123.891 171.55 121.926 164.215C119.96 156.879 120.47 149.099 123.376 142.083C126.283 135.066 131.423 129.205 138 125.407V34.5C138 29.925 139.817 25.5374 143.052 22.3024C146.287 19.0674 150.675 17.25 155.25 17.25C159.825 17.25 164.213 19.0674 167.448 22.3024C170.683 25.5374 172.5 29.925 172.5 34.5Z" stroke="white" stroke-width="13" stroke-linecap="round" stroke-linejoin="round"/>
<path d="M34.5 112.125H17.25" stroke="white" stroke-width="14" stroke-linecap="round" stroke-linejoin="round"/>
<path d="M54.6827 63.3077L42.5215 51.1465" stroke="white" stroke-width="14" stroke-linecap="round" stroke-linejoin="round"/>
</svg>
