<svg width="231" height="207" viewBox="0 0 231 207" fill="none" xmlns="http://www.w3.org/2000/svg">
<path d="M19.25 103.5H115.5" stroke="white" stroke-width="14" stroke-linecap="round" stroke-linejoin="round"/>
<path d="M86.625 34.5V172.5" stroke="white" stroke-width="14" stroke-linecap="round" stroke-linejoin="round"/>
<path d="M28.875 77.625L57.75 103.5L28.875 129.375" stroke="white" stroke-width="14" stroke-linecap="round" stroke-linejoin="round"/>
<path d="M115.5 51.75L86.625 77.625L57.75 51.75" stroke="white" stroke-width="14" stroke-linecap="round" stroke-linejoin="round"/>
<path d="M57.75 155.25L86.625 129.375L101.062 142.312" stroke="white" stroke-width="14" stroke-linecap="round" stroke-linejoin="round"/>
<path d="M192.5 34.5V125.407C199.84 129.205 205.576 135.066 208.819 142.083C212.063 149.099 212.632 156.879 210.438 164.215C208.245 171.55 203.411 178.033 196.687 182.656C189.964 187.279 181.725 189.785 173.25 189.785C164.775 189.785 156.537 187.279 149.813 182.656C143.089 178.033 138.255 171.55 136.062 164.215C133.868 156.879 134.437 149.099 137.681 142.083C140.924 135.066 146.66 129.205 154 125.407V34.5C154 29.925 156.028 25.5374 159.638 22.3024C163.248 19.0674 168.145 17.25 173.25 17.25C178.355 17.25 183.252 19.0674 186.862 22.3024C190.472 25.5374 192.5 29.925 192.5 34.5Z" stroke="white" stroke-width="14" stroke-linecap="round" stroke-linejoin="round"/>
</svg>
