<svg width="240" height="240" viewBox="0 0 240 240" fill="none" xmlns="http://www.w3.org/2000/svg">
<path d="M181.381 174.958C183.864 172.398 181.465 168.334 177.907 168.609C175.749 168.776 173.568 168.861 171.366 168.861C125.154 168.861 87.6917 131.428 87.6917 85.252C87.6917 71.0498 91.2356 57.6746 97.488 45.9612C99.1698 42.8104 96.398 38.9833 93.0558 40.248C61.9024 52.036 39.75 82.1641 39.75 117.47C39.75 163.05 76.6703 200 122.214 200C145.424 200 166.395 190.403 181.381 174.958Z" fill="#303030" fill-opacity="0.7"/>
<path fill-rule="evenodd" clip-rule="evenodd" d="M147.438 64.7669C147.038 64.1959 146.52 63.351 144.955 61.159C144.987 61.1917 137.46 51.5211 137.46 51.5211C136.533 50.3313 136.768 50.1329 137.973 51.0703C137.973 51.0703 147.575 58.5385 147.575 58.5385C149.728 60.0766 150.595 60.617 151.174 61.0225C151.745 60.6222 152.59 60.1042 154.782 58.5385C154.749 58.5711 164.419 51.0435 164.419 51.0435C165.609 50.1174 165.808 50.3518 164.87 51.5571C164.87 51.5571 157.402 61.159 157.402 61.159C155.864 63.3124 155.324 64.1791 154.918 64.7577C155.318 65.3287 155.836 66.1736 157.402 68.3655C157.369 68.3329 164.897 78.0034 164.897 78.0034C165.823 79.1933 165.589 79.3917 164.383 78.4542L154.782 70.986C152.628 69.4479 151.761 68.9076 151.183 68.5021C150.612 68.9024 149.767 69.4204 147.575 70.986C147.608 70.9534 137.937 78.481 137.937 78.481C136.747 79.4071 136.549 79.1728 137.486 77.9675L144.955 68.3655C146.493 66.2122 147.033 65.3455 147.438 64.7669Z" fill="white"/>
<path fill-rule="evenodd" clip-rule="evenodd" d="M190.177 115.461C190.193 115.476 186.684 110.969 186.684 110.969C186.249 110.41 186.356 110.314 186.918 110.752L191.401 114.238C192.406 114.956 192.81 115.208 193.081 115.397C193.347 115.211 193.741 114.969 194.765 114.238C194.749 114.253 199.257 110.744 199.257 110.744C199.816 110.309 199.912 110.416 199.474 110.979L195.988 115.461C195.27 116.466 195.018 116.871 194.828 117.141C195.015 117.408 195.257 117.802 195.988 118.825C195.973 118.81 199.482 123.318 199.482 123.318C199.917 123.877 199.81 123.972 199.247 123.535L194.765 120.049C193.759 119.331 193.355 119.078 193.085 118.889C192.818 119.076 192.424 119.318 191.401 120.049C191.416 120.033 186.908 123.542 186.908 123.542C186.349 123.977 186.254 123.87 186.691 123.307L190.177 118.825C190.895 117.82 191.148 117.415 191.337 117.145C191.15 116.879 190.908 116.484 190.177 115.461Z" fill="white"/>
</svg>
