<svg width="240" height="240" viewBox="0 0 240 240" fill="none" xmlns="http://www.w3.org/2000/svg">
<path fill-rule="evenodd" clip-rule="evenodd" d="M115.259 94.0325L97.8642 77.2796C95.8193 75.3102 95.8003 72.1355 97.8534 70.1582C99.8922 68.1946 103.201 68.1975 105.248 70.1686L115.259 79.8106V49.8966C115.259 47.1108 117.576 44.8525 120.48 44.8525C123.363 44.8525 125.701 47.0805 125.701 49.8966V79.9715L135.879 70.1686C137.924 68.1993 141.22 68.1809 143.273 70.1582C145.312 72.1219 145.309 75.3084 143.263 77.2796L125.701 94.1933V170.519L143.32 187.488C145.367 189.459 145.37 192.646 143.331 194.609C141.278 196.587 137.981 196.568 135.937 194.599L125.701 184.741V214.956C125.701 217.742 123.383 220 120.48 220C117.596 220 115.259 217.773 115.259 214.956V184.761L105.044 194.599C102.997 196.57 99.6885 196.573 97.6497 194.609C95.5966 192.632 95.6157 189.457 97.6605 187.488L115.259 170.539V94.0325Z" fill="white"/>
<path fill-rule="evenodd" clip-rule="evenodd" d="M155.639 146.772L178.733 140.07C181.448 139.283 184.192 140.853 184.874 143.622C185.55 146.371 183.901 149.237 181.183 150.026L167.892 153.882L191.454 168.983C193.854 170.376 194.646 173.513 193.201 176.03C191.765 178.529 188.682 179.441 186.256 178.033L162.555 162.853L165.933 176.577C166.612 179.334 164.987 182.2 162.261 182.991C159.554 183.777 156.811 182.181 156.131 179.421L150.302 155.742L84.5444 117.579L61.1531 124.367C58.4359 125.155 55.6891 123.564 55.0124 120.815C54.331 118.047 55.9878 115.199 58.7026 114.411L72.2917 110.468L48.4697 95.2171C46.0696 93.8243 45.2777 90.6865 46.7232 88.1698C48.1587 85.6705 51.2419 84.7584 53.6681 86.1664L77.4729 101.408L74.0825 87.6341C73.4032 84.8745 75.0479 82.0051 77.7547 81.2197C80.4804 80.4287 83.206 82.0326 83.8847 84.7897L89.7257 108.518L155.639 146.772Z" fill="white"/>
<path fill-rule="evenodd" clip-rule="evenodd" d="M89.4864 155.9L83.713 179.354C83.0344 182.111 80.3088 183.715 77.5831 182.924C74.8763 182.138 73.2316 179.269 73.9108 176.509L77.2337 163.011L53.6716 178.111C51.2715 179.504 48.1722 178.624 46.7267 176.107C45.2912 173.608 46.047 170.468 48.4732 169.06L72.1738 153.879L58.6609 149.958C55.9461 149.171 54.2893 146.323 54.9707 143.554C55.6474 140.805 58.3943 139.215 61.1114 140.003L84.4266 146.769L150.185 108.606L156.032 84.8492C156.712 82.0896 159.456 80.4937 162.162 81.2792C164.888 82.0701 166.513 84.9364 165.835 87.6936L162.437 101.495L186.259 86.2439C188.659 84.851 191.759 85.7305 193.204 88.2472C194.64 90.7465 193.884 93.8865 191.458 95.2946L167.653 110.536L181.215 114.471C183.932 115.259 185.581 118.126 184.905 120.875C184.223 123.643 181.479 125.214 178.764 124.426L155.4 117.647L89.4864 155.9Z" fill="white"/>
<path d="M108.902 94.5562L94.4602 80.7257C90.3716 76.8102 90.3528 70.39 94.4493 66.467C98.4155 62.6688 104.761 62.6767 108.73 66.4775L110.513 67.9769V49.6697C110.513 44.1058 115.105 39.6828 120.71 39.6828C126.305 39.6828 130.907 44.0848 130.907 49.6697V67.9769L132.859 66.4775C136.829 62.6752 143.162 62.6583 147.139 66.467C151.224 70.3792 151.216 76.8114 147.128 80.7257L132.686 94.5562H149.129L151.842 83.5936C153.199 78.1155 158.757 74.8979 164.179 76.4622C169.472 77.9896 172.623 83.4774 171.301 88.8142L170.574 91.6808L178.909 85.9054C180.923 82.8922 182.095 79.2872 182.095 75.4134C182.095 68.1134 177.935 61.7677 171.817 58.539C171.831 58.1204 171.838 57.7001 171.838 57.2781C171.838 36.69 154.848 20 133.889 20C117.264 20 103.135 30.5026 98.004 45.1224C94.319 43.2334 90.1286 42.1654 85.6842 42.1654C70.9567 42.1654 59.0176 53.8934 59.0176 68.3608C59.0176 76.6679 62.954 84.072 69.0944 88.8711L69.0655 88.7544C67.7449 83.4196 70.9093 77.9256 76.1883 76.4024C81.6248 74.8338 87.168 78.0541 88.5245 83.5338L91.2532 94.5562H108.902Z" fill="white"/>
</svg>
